<?xml version="1.0" encoding="UTF-8" standalone="no"?>
<!-- Svg Vector Icons : http://www.onlinewebfonts.com/icon -->

<svg
   version="1.1"
   x="0px"
   y="0px"
   viewBox="0 0 1000 1000"
   enable-background="new 0 0 1000 1000"
   xml:space="preserve"
   id="svg839"
   sodipodi:docname="arrow.svg"
   inkscape:version="1.1.1 (3bf5ae0d25, 2021-09-20)"
   xmlns:inkscape="http://www.inkscape.org/namespaces/inkscape"
   xmlns:sodipodi="http://sodipodi.sourceforge.net/DTD/sodipodi-0.dtd"
   xmlns="http://www.w3.org/2000/svg"
   xmlns:svg="http://www.w3.org/2000/svg"><defs
   id="defs843" /><sodipodi:namedview
   id="namedview841"
   pagecolor="#ffffff"
   bordercolor="#666666"
   borderopacity="1.0"
   inkscape:pageshadow="2"
   inkscape:pageopacity="0.0"
   inkscape:pagecheckerboard="0"
   showgrid="false"
   inkscape:zoom="1.306"
   inkscape:cx="500"
   inkscape:cy="500"
   inkscape:window-width="2880"
   inkscape:window-height="1526"
   inkscape:window-x="2869"
   inkscape:window-y="4"
   inkscape:window-maximized="1"
   inkscape:current-layer="svg839" />
<metadata
   id="metadata833"> Svg Vector Icons : http://www.onlinewebfonts.com/icon </metadata>
<g
   id="g837"
   transform="rotate(180,500.0625,499.9625)"><path
     d="m 783.2,731.8 c -14.7,14.7 -44,14.7 -58.7,0 -14.7,-14.7 -14.7,-44 0,-58.7 L 842,550.8 H 59 C 34.5,550.8 10.1,526.3 10.1,501.9 10.1,477.4 34.6,453 59,453 H 842 L 724.5,330.5 c -14.7,-14.7 -14.7,-44 0,-58.7 9.8,-9.8 19.6,-14.7 29.4,-14.7 9.8,0 19.6,4.9 29.4,14.7 L 979,472.5 c 14.7,14.7 14.7,44 0,58.7 z"
     id="path835" /></g>
</svg>
