<?xml version="1.0" encoding="iso-8859-1"?>
<!-- Generator: Adobe Illustrator 18.0.0, SVG Export Plug-In . SVG Version: 6.00 Build 0)  -->
<!DOCTYPE svg PUBLIC "-//W3C//DTD SVG 1.1//EN" "http://www.w3.org/Graphics/SVG/1.1/DTD/svg11.dtd">
<svg version="1.1" id="Capa_1" xmlns="http://www.w3.org/2000/svg" xmlns:xlink="http://www.w3.org/1999/xlink" x="0px" y="0px"
	 viewBox="0 0 187.664 187.664" style="enable-background:new 0 0 187.664 187.664;" xml:space="preserve">
<path d="M177.185,61.125c13.959-13.959,13.96-36.675,0.001-50.638C170.423,3.724,161.432,0,151.871,0c-0.004,0-0.007,0-0.01,0
	c-9.562,0-18.551,3.725-25.313,10.487l-49.48,49.48l-6.939-6.939L37.59,85.576l26.951,26.951l-43.518,43.517L8.817,165.15
	l-8.808,13.752l4.268,4.268l0.227,0.227l4.268,4.268l13.752-8.809l9.111-12.21l43.514-43.513l26.416,26.416l32.541-32.54
	l-6.402-6.403l49.482-49.482H177.185z M101.563,128.336L58.802,85.575l11.329-11.332l42.761,42.765L101.563,128.336z
	 M166.579,50.518l-48.911,48.909l-9.676-9.677l35.783-35.783l-10.607-10.606L97.386,79.143l-9.139-9.141l48.909-48.91
	c3.929-3.929,9.15-6.093,14.707-6.093c0.002,0,0.004,0,0.006,0c5.557,0,10.781,2.164,14.711,6.093
	C174.691,29.206,174.69,42.406,166.579,50.518z"/>
<g>
</g>
<g>
</g>
<g>
</g>
<g>
</g>
<g>
</g>
<g>
</g>
<g>
</g>
<g>
</g>
<g>
</g>
<g>
</g>
<g>
</g>
<g>
</g>
<g>
</g>
<g>
</g>
<g>
</g>
</svg>
